<svg width="150" height="23" viewBox="0 0 150 23" fill="none" xmlns="http://www.w3.org/2000/svg">
<path d="M16.5938 22H11.7812L6.54492 13.5781L4.75391 14.8633V22H0.515625V2.01172H4.75391V11.1582C5.03646 10.7663 5.31445 10.3743 5.58789 9.98242C5.86133 9.59049 6.13932 9.19857 6.42188 8.80664L11.8359 2.01172H16.5391L9.56641 10.8574L16.5938 22ZM25.084 6.42773C26.4967 6.42773 27.7135 6.70117 28.7344 7.24805C29.7552 7.78581 30.5436 8.56966 31.0996 9.59961C31.6556 10.6296 31.9336 11.8874 31.9336 13.373V15.3965H22.0762C22.1217 16.5723 22.4727 17.4974 23.1289 18.1719C23.7943 18.8372 24.7148 19.1699 25.8906 19.1699C26.8659 19.1699 27.7591 19.0697 28.5703 18.8691C29.3815 18.6686 30.2155 18.3678 31.0723 17.9668V21.1934C30.3158 21.5671 29.5228 21.8405 28.6934 22.0137C27.873 22.1868 26.875 22.2734 25.6992 22.2734C24.168 22.2734 22.8099 21.9909 21.625 21.4258C20.4492 20.8607 19.5241 19.9993 18.8496 18.8418C18.1842 17.6842 17.8516 16.2259 17.8516 14.4668C17.8516 12.6803 18.1523 11.1947 18.7539 10.0098C19.3646 8.81576 20.2122 7.92253 21.2969 7.33008C22.3815 6.72852 23.6439 6.42773 25.084 6.42773ZM25.1113 9.39453C24.3001 9.39453 23.6257 9.6543 23.0879 10.1738C22.5592 10.6934 22.2539 11.5091 22.1719 12.6211H28.0234C28.0143 12.0013 27.9004 11.4499 27.6816 10.9668C27.472 10.4837 27.153 10.1009 26.7246 9.81836C26.3053 9.53581 25.7676 9.39453 25.1113 9.39453ZM44.0059 6.42773C45.6374 6.42773 46.9499 6.87435 47.9434 7.76758C48.9368 8.65169 49.4336 10.0736 49.4336 12.0332V22H45.2637V13.0723C45.2637 11.9785 45.0632 11.1536 44.6621 10.5977C44.2702 10.0417 43.6504 9.76367 42.8027 9.76367C41.5267 9.76367 40.6562 10.1966 40.1914 11.0625C39.7266 11.9284 39.4941 13.1771 39.4941 14.8086V22H35.3242V6.71484H38.5098L39.0703 8.66992H39.3027C39.6309 8.14128 40.0365 7.71289 40.5195 7.38477C41.0117 7.05664 41.554 6.8151 42.1465 6.66016C42.748 6.50521 43.3678 6.42773 44.0059 6.42773ZM64.3633 22H52.291V19.5391L59.373 9.90039H52.7148V6.71484H64.1172V9.42188L57.2266 18.8145H64.3633V22ZM71.5684 6.71484V22H67.3984V6.71484H71.5684ZM69.4902 0.726562C70.11 0.726562 70.6432 0.872396 71.0898 1.16406C71.5365 1.44661 71.7598 1.97982 71.7598 2.76367C71.7598 3.53841 71.5365 4.07617 71.0898 4.37695C70.6432 4.66862 70.11 4.81445 69.4902 4.81445C68.8613 4.81445 68.3236 4.66862 67.877 4.37695C67.4395 4.07617 67.2207 3.53841 67.2207 2.76367C67.2207 1.97982 67.4395 1.44661 67.877 1.16406C68.3236 0.872396 68.8613 0.726562 69.4902 0.726562ZM82.2598 6.42773C83.6725 6.42773 84.8893 6.70117 85.9102 7.24805C86.931 7.78581 87.7194 8.56966 88.2754 9.59961C88.8314 10.6296 89.1094 11.8874 89.1094 13.373V15.3965H79.252C79.2975 16.5723 79.6484 17.4974 80.3047 18.1719C80.9701 18.8372 81.8906 19.1699 83.0664 19.1699C84.0417 19.1699 84.9349 19.0697 85.7461 18.8691C86.5573 18.6686 87.3913 18.3678 88.248 17.9668V21.1934C87.4915 21.5671 86.6986 21.8405 85.8691 22.0137C85.0488 22.1868 84.0508 22.2734 82.875 22.2734C81.3438 22.2734 79.9857 21.9909 78.8008 21.4258C77.625 20.8607 76.6999 19.9993 76.0254 18.8418C75.36 17.6842 75.0273 16.2259 75.0273 14.4668C75.0273 12.6803 75.3281 11.1947 75.9297 10.0098C76.5404 8.81576 77.388 7.92253 78.4727 7.33008C79.5573 6.72852 80.8197 6.42773 82.2598 6.42773ZM82.2871 9.39453C81.4759 9.39453 80.8014 9.6543 80.2637 10.1738C79.735 10.6934 79.4297 11.5091 79.3477 12.6211H85.1992C85.1901 12.0013 85.0762 11.4499 84.8574 10.9668C84.6478 10.4837 84.3288 10.1009 83.9004 9.81836C83.4811 9.53581 82.9434 9.39453 82.2871 9.39453ZM99.2129 2.01172C101.792 2.01172 103.674 2.56771 104.859 3.67969C106.044 4.78255 106.637 6.30469 106.637 8.24609C106.637 9.12109 106.505 9.95964 106.24 10.7617C105.976 11.5547 105.543 12.2611 104.941 12.8809C104.349 13.5007 103.556 13.9928 102.562 14.3574C101.569 14.7129 100.343 14.8906 98.8848 14.8906H97.0664V22H92.8281V2.01172H99.2129ZM98.9941 5.48438H97.0664V11.418H98.4609C99.2539 11.418 99.9421 11.3132 100.525 11.1035C101.109 10.8939 101.56 10.5658 101.879 10.1191C102.198 9.67253 102.357 9.09831 102.357 8.39648C102.357 7.41211 102.084 6.68294 101.537 6.20898C100.99 5.72591 100.143 5.48438 98.9941 5.48438ZM116.385 6.42773C117.798 6.42773 119.014 6.70117 120.035 7.24805C121.056 7.78581 121.844 8.56966 122.4 9.59961C122.956 10.6296 123.234 11.8874 123.234 13.373V15.3965H113.377C113.423 16.5723 113.773 17.4974 114.43 18.1719C115.095 18.8372 116.016 19.1699 117.191 19.1699C118.167 19.1699 119.06 19.0697 119.871 18.8691C120.682 18.6686 121.516 18.3678 122.373 17.9668V21.1934C121.617 21.5671 120.824 21.8405 119.994 22.0137C119.174 22.1868 118.176 22.2734 117 22.2734C115.469 22.2734 114.111 21.9909 112.926 21.4258C111.75 20.8607 110.825 19.9993 110.15 18.8418C109.485 17.6842 109.152 16.2259 109.152 14.4668C109.152 12.6803 109.453 11.1947 110.055 10.0098C110.665 8.81576 111.513 7.92253 112.598 7.33008C113.682 6.72852 114.945 6.42773 116.385 6.42773ZM116.412 9.39453C115.601 9.39453 114.926 9.6543 114.389 10.1738C113.86 10.6934 113.555 11.5091 113.473 12.6211H119.324C119.315 12.0013 119.201 11.4499 118.982 10.9668C118.773 10.4837 118.454 10.1009 118.025 9.81836C117.606 9.53581 117.068 9.39453 116.412 9.39453ZM133.064 18.9512C133.52 18.9512 133.962 18.9056 134.391 18.8145C134.828 18.7233 135.261 18.6094 135.689 18.4727V21.5762C135.243 21.7767 134.687 21.9408 134.021 22.0684C133.365 22.2051 132.645 22.2734 131.861 22.2734C130.95 22.2734 130.13 22.1276 129.4 21.8359C128.68 21.5352 128.111 21.0202 127.691 20.291C127.281 19.5527 127.076 18.5273 127.076 17.2148V9.8457H125.08V8.08203L127.377 6.6875L128.58 3.46094H131.246V6.71484H135.525V9.8457H131.246V17.2148C131.246 17.7982 131.41 18.2357 131.738 18.5273C132.076 18.8099 132.518 18.9512 133.064 18.9512ZM149.457 17.4609C149.457 18.5 149.211 19.3796 148.719 20.0996C148.236 20.8105 147.511 21.3529 146.545 21.7266C145.579 22.0911 144.376 22.2734 142.936 22.2734C141.869 22.2734 140.953 22.2051 140.188 22.0684C139.431 21.9316 138.665 21.7038 137.891 21.3848V17.9395C138.72 18.3132 139.609 18.623 140.557 18.8691C141.514 19.1061 142.352 19.2246 143.072 19.2246C143.883 19.2246 144.462 19.1061 144.809 18.8691C145.164 18.623 145.342 18.304 145.342 17.9121C145.342 17.6569 145.269 17.429 145.123 17.2285C144.986 17.0189 144.686 16.7865 144.221 16.5312C143.756 16.2669 143.027 15.9251 142.033 15.5059C141.076 15.1048 140.288 14.6992 139.668 14.2891C139.057 13.8789 138.602 13.3958 138.301 12.8398C138.009 12.2747 137.863 11.5592 137.863 10.6934C137.863 9.2806 138.41 8.21875 139.504 7.50781C140.607 6.78776 142.079 6.42773 143.92 6.42773C144.868 6.42773 145.77 6.52344 146.627 6.71484C147.493 6.90625 148.382 7.21159 149.293 7.63086L148.035 10.6387C147.279 10.3105 146.563 10.0417 145.889 9.83203C145.223 9.6224 144.544 9.51758 143.852 9.51758C143.241 9.51758 142.781 9.59961 142.471 9.76367C142.161 9.92773 142.006 10.1784 142.006 10.5156C142.006 10.7617 142.083 10.9805 142.238 11.1719C142.402 11.3633 142.712 11.5775 143.168 11.8145C143.633 12.0423 144.312 12.3385 145.205 12.7031C146.071 13.0586 146.823 13.4323 147.461 13.8242C148.099 14.207 148.591 14.6855 148.938 15.2598C149.284 15.8249 149.457 16.5586 149.457 17.4609Z" fill="#4E2096"/>
</svg>
